<svg width="24" height="24" viewBox="0 0 24 24" fill="none" xmlns="http://www.w3.org/2000/svg">
<path d="M7 10.4C5.12223 10.4 3.6 8.87777 3.6 7C3.6 5.12223 5.12223 3.6 7 3.6C8.87777 3.6 10.4 5.12223 10.4 7C10.4 8.87777 8.87777 10.4 7 10.4Z" stroke="white" stroke-width="1.2"/>
<path d="M19 10.4C17.5688 10.4 16.5558 10.3987 15.7881 10.2955C15.0377 10.1946 14.6122 10.0063 14.3029 9.69706C13.9937 9.38778 13.8054 8.96228 13.7045 8.21187C13.6013 7.4442 13.6 6.43118 13.6 5C13.6 4.51163 13.6013 4.20572 13.6313 3.98268C13.6589 3.7769 13.7008 3.73354 13.7172 3.71716C13.7335 3.70077 13.7769 3.65893 13.9827 3.63126C14.2057 3.60127 14.5116 3.6 15 3.6C16.4312 3.6 17.4442 3.60127 18.2119 3.70448C18.9623 3.80537 19.3878 3.99367 19.6971 4.30294C20.0063 4.61222 20.1946 5.03772 20.2955 5.78813C20.3987 6.5558 20.4 7.56882 20.4 9C20.4 9.48837 20.3987 9.79428 20.3687 10.0173C20.3411 10.2231 20.2992 10.2665 20.2828 10.2828C20.2665 10.2992 20.2231 10.3411 20.0173 10.3687C19.7943 10.3987 19.4884 10.4 19 10.4Z" stroke="white" stroke-width="1.2"/>
<path d="M9 20.4C7.56882 20.4 6.5558 20.3987 5.78813 20.2955C5.03772 20.1946 4.61222 20.0063 4.30294 19.6971C3.99367 19.3878 3.80537 18.9623 3.70448 18.2119C3.60127 17.4442 3.6 16.4312 3.6 15C3.6 14.5116 3.60127 14.2057 3.63126 13.9827C3.65893 13.7769 3.70077 13.7335 3.71716 13.7172C3.73354 13.7008 3.7769 13.6589 3.98268 13.6313C4.20572 13.6013 4.51163 13.6 5 13.6C6.43118 13.6 7.4442 13.6013 8.21187 13.7045C8.96228 13.8054 9.38778 13.9937 9.69706 14.3029C10.0063 14.6122 10.1946 15.0377 10.2955 15.7881C10.3987 16.5558 10.4 17.5688 10.4 19C10.4 19.4884 10.3987 19.7943 10.3687 20.0173C10.3411 20.2231 10.2992 20.2665 10.2828 20.2828C10.2665 20.2992 10.2231 20.3411 10.0173 20.3687C9.79428 20.3987 9.48837 20.4 9 20.4Z" stroke="white" stroke-width="1.2"/>
<path d="M17 20.4C18.8778 20.4 20.4 18.8778 20.4 17C20.4 15.1222 18.8778 13.6 17 13.6C15.1222 13.6 13.6 15.1222 13.6 17C13.6 18.8778 15.1222 20.4 17 20.4Z" stroke="white" stroke-width="1.2"/>
</svg>
